<?xml version="1.0" standalone="no"?>
<!DOCTYPE svg PUBLIC "-//W3C//DTD SVG 20010904//EN"
 "http://www.w3.org/TR/2001/REC-SVG-20010904/DTD/svg10.dtd">
<svg version="1.0" xmlns="http://www.w3.org/2000/svg"
 width="600px" height="480px" viewBox="0 0 1280.000000 1280.000000"
 preserveAspectRatio="xMidYMid meet">
<g transform="translate(0.000000,1280.000000) scale(0.100000,-0.100000)"
fill="#000000" stroke="none">
<path d="M4095 11313 c-564 -48 -1006 -210 -1335 -492 -130 -111 -564 -563
-664 -690 -171 -220 -321 -460 -463 -745 -197 -392 -323 -736 -323 -880 0
-151 116 -276 257 -276 l52 0 51 75 51 75 47 0 c26 0 52 4 57 8 6 4 33 43 60
87 203 332 385 562 535 674 168 127 288 192 480 261 58 20 147 56 198 79 222
99 519 151 862 151 162 0 206 -8 243 -46 45 -45 52 -106 38 -341 -71 -1217
-212 -2367 -386 -3163 -131 -601 -235 -924 -493 -1535 -146 -346 -345 -693
-607 -1060 -242 -337 -352 -504 -381 -575 -47 -114 -71 -326 -55 -470 29 -263
113 -442 291 -621 151 -152 300 -234 499 -274 109 -22 331 -17 405 10 54 20
183 135 255 228 22 29 70 77 106 107 275 225 533 690 705 1265 275 921 507
2885 700 5925 15 236 30 401 36 411 3 5 39 9 81 9 l76 0 51 54 c37 39 63 57
93 65 29 8 329 11 1015 9 945 -3 974 -4 1005 -23 18 -10 39 -33 48 -51 19 -41
19 -158 0 -331 -19 -174 -108 -1058 -140 -1398 -174 -1866 -211 -2836 -139
-3675 96 -1118 358 -1781 876 -2216 314 -263 646 -396 1029 -411 281 -11 544
41 684 134 167 110 208 148 556 500 102 103 214 224 249 268 327 412 546 1020
670 1862 17 114 32 244 33 288 l2 80 -177 3 c-203 3 -188 10 -207 -100 -13
-74 -48 -198 -61 -211 -4 -5 -34 -10 -66 -11 -88 -4 -113 -20 -156 -101 -37
-71 -61 -129 -118 -290 -47 -131 -120 -274 -160 -313 -45 -44 -214 -126 -315
-154 -69 -19 -106 -22 -270 -22 -175 0 -198 2 -290 27 -119 32 -274 107 -368
178 -159 120 -313 309 -392 482 -101 222 -166 508 -195 852 -13 156 -13 892 0
1255 32 890 95 1717 200 2605 31 255 69 541 81 596 l11 49 80 0 81 0 51 53
c34 35 65 57 92 65 31 9 243 12 835 12 835 0 1015 7 1036 37 8 9 13 46 13 85
0 58 3 68 18 69 9 1 78 4 152 8 l135 6 0 735 0 735 -3690 1 c-2029 0 -3708 -1
-3730 -3z"/>
</g>
</svg>
